<?xml version="1.0" encoding="utf-8"?>
<svg version="1.1" xmlns:xlink="http://www.w3.org/1999/xlink" width="62px" height="62px" xmlns="http://www.w3.org/2000/svg">
  <g transform="matrix(1 0 0 1 -303 -229 )">
    <path d="M 31 0  C 48.1183751015625 0  62 13.8827179972642  62 31.0010930810032  C 62 48.1183750514622  48.1183751015625 61.9999999354462  31 61.9999999354462  C 13.8827180117187 62.0010930487263  0 48.1194682252891  0 31.0010930810032  C 0 13.8827179972642  13.8827180117187 0  31 0  Z M 45.2915476464844 46.0720405926553  L 45 46.0720405926553  L 45 13.9515850421144  L 40.2128777089844 9.52551221469151  L 23.3109418222656 15.8416023643653  L 23.3109418222656 17.4211714584238  L 38 12.2473994599044  L 38 48  L 48.8791917539063 48  L 48.8791917539063 46.0720406532021  L 45.2915476464844 46.0720405926553  Z M 17.8103247695312 36.1770513666297  L 25.8590218183594 34.5668746769  L 25.8590218183594 30.482950726074  L 17.8103247695313 32.599245403558  L 17.8103247695312 36.1770513666297  Z M 17.8103247695312 48.4441270472167  L 25.8590218183594 48.4441270472167  L 25.8590218183594 44.1590676493345  L 17.8103247695313 44.7427977092736  L 17.8103247695312 48.4441270472167  Z M 17.8103247695312 42.2909128954203  L 25.8590218183594 41.5136993024795  L 25.8590218183594 37.4363340918811  L 17.8103247695313 38.7896258307064  L 17.8103247695312 42.2909128954203  Z M 17.8103247695312 29.9451320293683  L 25.8590218183594 27.7304558851898  L 25.8590218183594 23.4880284501539  L 17.8103247695313 26.2110088086469  L 17.8103247695312 29.9451320293683  Z M 34 19.3975457591004  L 34.786593328125 19.3975457591004  L 30.2413695742187 16.6363059514285  L 14 22.8059169840672  L 14 48.5304840861893  L 16 48.5304840861893  L 16 24.0498959417564  L 29 19.8337035281775  L 29 48.4004019105435  L 34 48.4004019105435  L 34 19.3975457591004  Z " fill-rule="nonzero" fill="#1d67c7" stroke="none" fill-opacity="0.803921568627451" transform="matrix(1 0 0 1 303 229 )" />
  </g>
</svg>