<?xml version="1.0" encoding="UTF-8"?>
<svg width="52px" height="52px" viewBox="0 0 52 52" version="1.1" xmlns="http://www.w3.org/2000/svg" xmlns:xlink="http://www.w3.org/1999/xlink">
    <title>icon_上传票据</title>
    <g id="初定稿" stroke="none" stroke-width="1" fill="none" fill-rule="evenodd">
        <g id="票据通（初定稿）" transform="translate(-274.000000, -716.000000)" fill-rule="nonzero">
            <g id="编组-7" transform="translate(260.000000, 716.000000)">
                <g id="icon_上传票据" transform="translate(14.000000, 0.000000)">
                    <g fill="#1D67C7" fill-opacity="0.1" id="形状">
                        <path d="M45.4998294,24.1019096 C38.0233877,20.8264865 29.2773631,23.6055249 25.0628168,30.595745 C20.8482705,37.5859652 22.4732297,46.6178813 28.8598918,51.7008061 C27.9537217,52.101603 26.8994032,51.9610272 26.129902,51.3368075 L22.4249159,48.3858186 L19.1066783,51.3368075 C18.6334052,51.749429 18.0250396,51.9738072 17.3971847,51.9673051 C16.7754948,51.9731316 16.1731793,51.7511651 15.7039411,51.3433074 L12.3922035,48.3923185 L9.04146608,51.3693074 C8.56810099,51.779609 7.9616462,52.0037085 7.33522248,52 C6.71225934,52.0073408 6.10833602,51.7852081 5.63872887,51.3758073 L1.75174345,47.9178203 C1.6306108,47.8128814 1.52355682,47.6927188 1.43324462,47.5603217 C0.548078395,46.9289591 0.0159770329,45.9142262 0,44.8270819 L0,2.6097402 C0,1.16999563 1.16999563,0 2.57724035,0 L42.922589,0 C44.3460837,0 45.4998294,1.16024563 45.4998294,2.6097402 L45.4998294,24.1019096 Z M5.1999805,21.8106682 C5.1999805,22.4964156 5.76872837,23.0911634 6.46747573,23.0911634 L18.2324316,23.0911634 C18.9571789,23.0911634 19.4999269,22.5191656 19.4999269,21.8106682 C19.4965029,21.1094066 18.9335927,20.5392796 18.2324316,20.5269052 L6.46747573,20.5269052 C6.12793402,20.5251174 5.80201228,20.6603195 5.56345076,20.9019395 C5.32488923,21.1435595 5.19384986,21.471177 5.1999805,21.8106682 L5.1999805,21.8106682 Z M5.19991135,32.0708797 C5.19991135,32.7598772 5.75897842,33.3546249 6.45122583,33.3546249 L15.6486913,33.3546249 C15.9848608,33.3503427 16.3055573,33.2126788 16.5402172,32.9719239 C16.7748771,32.7311689 16.9042741,32.4070485 16.9000423,32.0708797 C16.9000423,31.3749488 16.3444406,30.8062814 15.6486913,30.7903845 L6.45122583,30.7903845 C5.75246665,30.7993063 5.19275617,31.372101 5.19991135,32.0708798 L5.19991135,32.0708797 Z M5.19994301,10.2634615 C5.19994301,10.9524589 5.77197837,11.5472067 6.48047568,11.5472067 L23.4194122,11.5472067 C24.1344095,11.5472067 24.6999074,10.9719588 24.6999074,10.2634615 C24.6946246,9.55793268 24.1249254,8.98678749 23.4194122,8.97969953 L6.48047568,8.97969953 C6.13976983,8.97796801 5.81255963,9.11276287 5.57194658,9.35398661 C5.33133354,9.59521035 5.19736854,9.92276119 5.19994301,10.2634615 Z"></path>
                        <path d="M38.9998538,51.999805 C31.8201789,51.999805 25.9999025,46.1795286 25.9999025,38.9998537 C25.9999025,31.8201789 31.8201789,25.9999025 38.9998538,25.9999025 C46.1795286,25.9999025 51.999805,31.8201789 51.999805,38.9998537 C51.999805,46.1795286 46.1795286,51.999805 38.9998538,51.999805 Z"></path>
                    </g>
                    <g id="编组" transform="translate(29.000000, 30.000000)">
                        <path d="M19,8.8843472 C19,7.34575619 18.2623286,5.96946381 17.1044645,5.03029574 C16.9107091,5.01081991 16.7169536,5 16.5185293,5 C13.4697987,5.00216398 11,7.29165665 11,10.1156528 C11,11.6542438 11.7376714,13.0305362 12.8955355,13.9697043 C13.0892909,13.9891801 13.2830464,14 13.4814707,14 C16.5302013,14 19,11.7083434 19,8.8843472 Z" id="路径" fill-opacity="0.500437063" fill="#E62129"></path>
                        <path d="M15.0414485,4.17240936 C14.5440663,1.7834919 12.4192845,0 9.92146597,0 C7.42364747,0 5.29450262,1.7878632 4.79930192,4.18115197 C2.11605585,4.4019028 0,6.6618668 0,9.40704551 C0,11.9992286 1.85209424,14.1411674 4.33027923,14.5695552 L9.2495637,14.6067112 L9.2495637,17 L10.7482548,17 L10.7482548,14.6220108 L14.9236475,14.6547956 L15.6740838,14.5717408 C18.1500873,14.143353 20,12.0014142 20,9.41141682 C20,6.61159681 17.7988656,4.31666238 15.0414485,4.17240936 Z M14.8974695,13.1445102 L10.7482548,13.1466958 L10.7482548,9.56222679 L11.9240838,10.7402931 L12.9842932,9.67806634 L10.0239965,6.7121368 L7.01352531,9.73052199 L8.07373473,10.7927488 L9.2495637,9.61468244 L9.2495637,13.1488815 L5.31849913,13.1510671 L5.10471204,13.1445102 C3.08246073,13.0745693 1.4986911,11.4353304 1.4986911,9.41141682 C1.4986911,7.34816148 3.17408377,5.66958087 5.23342059,5.66958087 L6.14965096,5.71766521 L6.20200698,4.98328619 C6.33944154,3.03368475 7.97338569,1.50591412 9.92146597,1.50591412 C11.8739092,1.50591412 13.5078534,3.0358704 13.6431065,4.98984315 L13.6954625,5.75044999 L14.4524433,5.68706608 C14.5549738,5.67832348 14.6596859,5.66958087 14.7665794,5.66958087 C16.8259162,5.66958087 18.5013089,7.34816148 18.5013089,9.41141682 C18.4991274,11.4331448 16.9175393,13.0723836 14.8974695,13.1445102 L14.8974695,13.1445102 Z" id="形状" fill="#1D67C7"></path>
                    </g>
                </g>
            </g>
        </g>
    </g>
</svg>