<?xml version="1.0" encoding="UTF-8"?>
<svg width="1200px" height="200px" viewBox="0 0 1200 200" version="1.1" xmlns="http://www.w3.org/2000/svg" xmlns:xlink="http://www.w3.org/1999/xlink">
    <title>操作指南</title>
    <defs>
        <rect id="path-1" x="0" y="0" width="180" height="180"></rect>
        <filter x="-8.9%" y="-7.8%" width="117.8%" height="117.8%" filterUnits="objectBoundingBox" id="filter-3">
            <feOffset dx="0" dy="2" in="SourceAlpha" result="shadowOffsetOuter1"></feOffset>
            <feGaussianBlur stdDeviation="5" in="shadowOffsetOuter1" result="shadowBlurOuter1"></feGaussianBlur>
            <feColorMatrix values="0 0 0 0 0   0 0 0 0 0   0 0 0 0 0  0 0 0 0.2 0" type="matrix" in="shadowBlurOuter1"></feColorMatrix>
        </filter>
        <rect id="path-4" x="0" y="0" width="180" height="180"></rect>
        <filter x="-8.9%" y="-7.8%" width="117.8%" height="117.8%" filterUnits="objectBoundingBox" id="filter-6">
            <feOffset dx="0" dy="2" in="SourceAlpha" result="shadowOffsetOuter1"></feOffset>
            <feGaussianBlur stdDeviation="5" in="shadowOffsetOuter1" result="shadowBlurOuter1"></feGaussianBlur>
            <feColorMatrix values="0 0 0 0 0   0 0 0 0 0   0 0 0 0 0  0 0 0 0.2 0" type="matrix" in="shadowBlurOuter1"></feColorMatrix>
        </filter>
        <rect id="path-7" x="0" y="0" width="180" height="180"></rect>
        <filter x="-8.9%" y="-7.8%" width="117.8%" height="117.8%" filterUnits="objectBoundingBox" id="filter-9">
            <feOffset dx="0" dy="2" in="SourceAlpha" result="shadowOffsetOuter1"></feOffset>
            <feGaussianBlur stdDeviation="5" in="shadowOffsetOuter1" result="shadowBlurOuter1"></feGaussianBlur>
            <feColorMatrix values="0 0 0 0 0   0 0 0 0 0   0 0 0 0 0  0 0 0 0.2 0" type="matrix" in="shadowBlurOuter1"></feColorMatrix>
        </filter>
        <rect id="path-10" x="0" y="0" width="180" height="180"></rect>
        <filter x="-8.9%" y="-7.8%" width="117.8%" height="117.8%" filterUnits="objectBoundingBox" id="filter-12">
            <feOffset dx="0" dy="2" in="SourceAlpha" result="shadowOffsetOuter1"></feOffset>
            <feGaussianBlur stdDeviation="5" in="shadowOffsetOuter1" result="shadowBlurOuter1"></feGaussianBlur>
            <feColorMatrix values="0 0 0 0 0   0 0 0 0 0   0 0 0 0 0  0 0 0 0.2 0" type="matrix" in="shadowBlurOuter1"></feColorMatrix>
        </filter>
        <rect id="path-13" x="0" y="0" width="180" height="180"></rect>
        <filter x="-8.9%" y="-7.8%" width="117.8%" height="117.8%" filterUnits="objectBoundingBox" id="filter-15">
            <feOffset dx="0" dy="2" in="SourceAlpha" result="shadowOffsetOuter1"></feOffset>
            <feGaussianBlur stdDeviation="5" in="shadowOffsetOuter1" result="shadowBlurOuter1"></feGaussianBlur>
            <feColorMatrix values="0 0 0 0 0   0 0 0 0 0   0 0 0 0 0  0 0 0 0.2 0" type="matrix" in="shadowBlurOuter1"></feColorMatrix>
        </filter>
    </defs>
    <g id="初定稿" stroke="none" stroke-width="1" fill="none" fill-rule="evenodd">
        <g id="票据通（初定稿）" transform="translate(-120.000000, -1037.000000)">
            <g id="操作指南" transform="translate(130.000000, 1045.000000)">
                <g id="位图">
                    <mask id="mask-2" fill="white">
                        <use xlink:href="#path-1"></use>
                    </mask>
                    <g id="蒙版">
                        <use fill="black" fill-opacity="1" filter="url(#filter-3)" xlink:href="#path-1"></use>
                        <use fill="#FFFFFF" fill-rule="evenodd" xlink:href="#path-1"></use>
                    </g>
                    <g id="Group-8" opacity="0.0215885417" mask="url(#mask-2)" fill="#E50113">
                        <g transform="translate(87.000000, 86.000000)" id="Combined-Shape">
                            <path d="M66.5,0 C103.05475,0 132.731057,29.5113289 132.998182,66.0038189 L132.891794,66.0577661 L94.3953629,85.7038604 L47.2433933,61.7308196 C45.941197,61.0698795 44.4757213,60.9465351 43.1619858,61.280496 C41.79517,61.6278386 40.5622088,62.4691409 39.7902377,63.7177125 L39.7902377,63.7177125 C39.6898469,63.8945838 39.6108035,64.0318917 39.5600311,64.1342909 C38.9548012,65.3479537 38.8740269,66.6779792 39.2444346,67.8910602 C39.603303,69.067487 40.3845054,70.121733 41.5164989,70.8344544 L41.5164989,70.8344544 C41.66997,70.9281264 41.8217102,71.0142348 41.9705656,71.0898705 L41.9705656,71.0898705 L91.7540448,96.4005004 C92.5715956,96.8089334 93.479729,97.0212953 94.3901702,97.0184446 C95.2879183,97.0154772 96.1977826,96.8118424 97.0262956,96.3894459 L97.0262956,96.3894459 L131.902793,78.5922535 C131.247158,82.1596622 130.306719,85.6275499 129.105931,88.9714613 L94.3912665,106.684751 L47.2392969,82.712292 C45.9371006,82.051352 44.4716249,81.9274257 43.1584663,82.2619684 C41.7910736,82.6093111 40.5581124,83.4500315 39.7861413,84.6986031 L39.7861413,84.6986031 C39.6863274,84.8754744 39.6067071,85.0133642 39.5559347,85.1157633 C38.9512817,86.3294262 38.8699305,87.6588699 39.2403382,88.8725327 C39.5992066,90.0489594 40.380409,91.1032054 41.5124025,91.8159268 L41.5124025,91.8159268 C41.6664505,91.909017 41.8176138,91.9951254 41.9664692,92.0707611 L41.9664692,92.0707611 L91.7505254,117.381973 C92.5680762,117.789824 93.4750557,118.002768 94.3860738,117.999973 C95.2843989,117.996368 96.1931092,117.792733 97.0221992,117.370918 L97.0221992,117.370918 L120.41143,105.436444 C108.3293,122.13422 88.6809373,133 66.5,133 C30.2759353,133 0.807342753,104.021108 0.0163077322,67.9876382 L0.108444098,67.9419689 L38.6042986,48.2964565 L85.7562681,72.2694972 C87.0584645,72.9298555 88.5239402,73.0537818 89.8376757,72.719239 C91.2050684,72.3718964 92.4380297,71.531176 93.2094238,70.2826044 L93.2094238,70.2826044 C93.3098146,70.1057331 93.388858,69.9678433 93.4402073,69.8654441 C94.0448603,68.6517813 94.1256346,67.3223376 93.7558039,66.1086748 C93.3969354,64.932248 92.615156,63.8780021 91.4831626,63.1652806 L91.4831626,63.1652806 C91.3302685,63.0721905 91.1785283,62.9855003 91.0296729,62.9104463 L91.0296729,62.9104463 L41.2456167,37.5992347 C40.4280658,37.1908017 39.5205094,36.9790216 38.6100682,36.9818721 C37.7117431,36.9842579 36.8024558,37.1884744 35.9733658,37.6102891 L35.9733658,37.6102891 L0.905058982,55.505834 C1.49119424,51.9843197 2.35414297,48.5562952 3.47077879,45.2448883 L38.6090297,27.3152168 L85.7604223,51.2882575 C87.0631955,51.9486158 88.5286713,52.072542 89.8412528,51.7379993 C91.2092225,51.3906567 92.4416068,50.5499363 93.2141548,49.3013647 L93.2141548,49.3013647 C93.3139687,49.1244934 93.3935891,48.9871854 93.4443614,48.8842044 C94.0490144,47.6705416 94.1297887,46.3410979 93.759381,45.1274351 C93.4005126,43.9510083 92.6193102,42.8967624 91.4878937,42.1840409 L91.4878937,42.1840409 C91.3338456,42.0909508 91.1826824,42.0048424 91.033827,41.9292066 L91.033827,41.9292066 L41.2497708,16.617995 C40.4322199,16.2101438 39.5246635,15.9977819 38.6136454,16.0000175 C37.7158972,16.0036 36.8066099,16.2078165 35.9775199,16.6290494 L35.9775199,16.6290494 L11.4938624,29.1229318 C23.4626656,11.5453201 43.6356276,0 66.5,0 Z"></path>
                        </g>
                    </g>
                </g>
                <g id="Group-8" transform="translate(250.000000, 0.000000)">
                    <mask id="mask-5" fill="white">
                        <use xlink:href="#path-4"></use>
                    </mask>
                    <g id="蒙版">
                        <use fill="black" fill-opacity="1" filter="url(#filter-6)" xlink:href="#path-4"></use>
                        <use fill="#FFFFFF" fill-rule="evenodd" xlink:href="#path-4"></use>
                    </g>
                    <g opacity="0.0215885417" mask="url(#mask-5)" fill="#E50113" id="Combined-Shape">
                        <g transform="translate(90.000000, -49.000000)">
                            <path d="M61.5000138,0 C95.2171318,0 122.606931,27.1448983 123.000002,60.7672462 L87.4532098,78.7553401 L43.5837012,56.6388071 C42.3721566,56.0290512 41.0086992,55.9152587 39.7864188,56.2233572 C38.5147532,56.5438011 37.3676239,57.3199516 36.6493933,58.471832 L36.6493933,58.471832 C36.5559911,58.6350062 36.4824503,58.7616808 36.4352124,58.85615 C35.8721152,59.975825 35.796964,61.2028514 36.1415859,62.3219896 C36.4754719,63.4073121 37.2022913,64.3799157 38.2554816,65.0374429 L38.2554816,65.0374429 C38.3982689,65.1238608 38.5394458,65.2033008 38.6779387,65.2730792 L38.6779387,65.2730792 L84.9957658,88.6236164 C85.7564032,89.0004198 86.6013173,89.1963361 87.4483786,89.1937062 C88.2836304,89.1909685 89.1301549,89.0031036 89.9009915,88.6134181 L89.9009915,88.6134181 L122.050641,72.3451076 C121.468329,75.6164342 120.627261,78.7983679 119.549362,81.8689851 L87.4493985,98.1114395 L43.5798899,75.9954432 C42.3683453,75.3856874 41.004888,75.2713581 39.7831443,75.5799934 C38.510942,75.9004373 37.3638127,76.676051 36.645582,77.8279314 L36.645582,77.8279314 C36.5527166,77.9911055 36.478639,78.1183169 36.4314011,78.2127862 C35.8688408,79.3324611 35.7931528,80.5589507 36.1377747,81.6786257 C36.4716607,82.7639483 37.1984801,83.7365518 38.2516704,84.3940791 L38.2516704,84.3940791 C38.3949944,84.4799602 38.5356345,84.5594002 38.6741274,84.6291786 L38.6741274,84.6291786 L84.9924913,107.980253 C85.7531287,108.356519 86.5969693,108.552972 87.4445674,108.550394 C88.280356,108.547068 89.1258069,108.359203 89.8971802,107.970054 L89.8971802,107.970054 L111.807375,96.8844725 C100.674116,112.679759 82.2898594,123 61.5000138,123 C27.781695,123 0.392003688,95.8540263 2.08540433e-06,62.2318064 L35.5460127,44.244821 L79.4155213,66.3613539 C80.6270659,66.9705731 81.9905233,67.0849023 83.2128037,66.7762671 C84.4850061,66.4558232 85.6321353,65.6802094 86.3498292,64.528329 L86.3498292,64.528329 C86.4432314,64.3651549 86.5167722,64.2379435 86.5645469,64.1434743 C87.1271073,63.0237993 87.2022585,61.7973097 86.8581734,60.6776347 C86.5242873,59.5923122 85.7969312,58.6197086 84.7437409,57.9621813 L84.7437409,57.9621813 C84.6014904,57.8763002 84.4603135,57.7963234 84.3218206,57.7270818 L84.3218206,57.7270818 L38.0034567,34.3760078 C37.2428193,33.9992045 36.398442,33.8038249 35.5513807,33.8064547 C34.715592,33.8086558 33.8696043,33.9970574 33.098231,34.3862062 L33.098231,34.3862062 L0.949387603,50.6555481 C1.531689,47.3841717 2.37273717,44.2021963 3.45060978,41.1315437 L35.5504144,24.8883995 L79.4193862,47.0049325 C80.6314676,47.6141516 81.994925,47.7284808 83.2161318,47.4198456 C84.488871,47.0994017 85.6354635,46.3237879 86.3542309,45.1719075 L86.3542309,45.1719075 C86.4470963,45.0087334 86.5211739,44.8820588 86.5684118,44.7870528 C87.1309722,43.6673778 87.2061234,42.4408882 86.8615015,41.3212132 C86.5276155,40.2358907 85.8007961,39.2632871 84.7481426,38.6057599 L84.7481426,38.6057599 C84.6048185,38.5198788 84.4641784,38.4404387 84.3256855,38.3706603 L84.3256855,38.3706603 L38.0073216,15.0195864 C37.2466842,14.6433198 36.4023069,14.4474035 35.5547088,14.449466 C34.719457,14.4527711 33.8734692,14.6411727 33.1020959,15.0297848 L33.1020959,15.0297848 L11.1932074,26.1147762 C22.3264303,10.3198068 40.7102773,0 61.5000138,0 Z"></path>
                        </g>
                    </g>
                </g>
                <g id="Group-8" transform="translate(500.000000, 0.000000)">
                    <mask id="mask-8" fill="white">
                        <use xlink:href="#path-7"></use>
                    </mask>
                    <g id="蒙版">
                        <use fill="black" fill-opacity="1" filter="url(#filter-9)" xlink:href="#path-7"></use>
                        <use fill="#FFFFFF" fill-rule="evenodd" xlink:href="#path-7"></use>
                    </g>
                    <g opacity="0.0215885417" mask="url(#mask-8)" id="Combined-Shape">
                        <g transform="translate(131.000000, 0.000000)">
                            <path d="M78.5000124,0 C121.53782,0 156.499103,34.6491888 157.000015,77.5662249 L111.627263,100.525109 L55.631223,72.2950627 C54.08478,71.5167564 52.344432,71.3715091 50.7842854,71.764773 C49.1611025,72.1737949 47.6968806,73.1644911 46.7801146,74.6347775 L46.7801146,74.6347775 L46.7883367,74.6402585 C46.6608939,74.8430566 46.5670247,75.004747 46.5067292,75.1253297 C45.7879792,76.5545083 45.6920545,78.1207127 46.1319377,79.5492062 C46.5581175,80.9345366 47.4858463,82.1759899 48.8301623,83.0152727 L48.8301623,83.0152727 C49.0124192,83.1255784 49.1926206,83.2269775 49.3693961,83.3160442 L49.3693961,83.3160442 L108.490525,113.121201 L108.501488,113.121201 C109.46142,113.602162 110.539888,113.852234 111.621096,113.848877 C112.68723,113.845383 113.767754,113.605588 114.751667,113.108184 L114.751667,113.108184 L155.788038,92.3439205 C155.044847,96.5187313 153.971496,100.579479 152.595957,104.498195 L111.622398,125.231675 L55.6263583,97.0023137 C54.0799152,96.2240074 52.3395672,96.078075 50.7801058,96.4720241 C49.1562378,96.8810459 47.6920158,97.871057 46.7752498,99.3413434 L46.7752498,99.3413434 C46.6567143,99.5496225 46.56216,99.711998 46.5018645,99.8325807 C45.7837996,101.261759 45.6871898,102.827279 46.127073,104.256457 C46.5532527,105.641788 47.4809815,106.883241 48.8252976,107.722524 L48.8252976,107.722524 C49.0082397,107.832144 49.1877559,107.933543 49.3645314,108.02261 L49.3645314,108.02261 L108.486345,137.828452 L108.496623,137.828452 C109.45724,138.308728 110.534338,138.559485 111.616231,138.556194 C112.683051,138.551948 113.762204,138.312153 114.746802,137.815435 L114.746802,137.815435 L142.71469,123.663821 C128.504068,143.826257 105.037402,157 78.5000124,157 C35.4615242,157 0.500912005,122.350811 9.29436584e-06,79.435116 L45.3717346,56.4750967 L101.367774,84.7051428 C102.914217,85.482764 104.654565,85.6286964 106.214712,85.2347474 C107.83858,84.8257255 109.302802,83.8357144 110.218882,82.3654281 L110.218882,82.3654281 C110.338103,82.1571489 110.431972,81.9947734 110.492953,81.8741907 C111.211018,80.4450121 111.306943,78.8794928 110.867745,77.4503142 C110.441565,76.0649838 109.513151,74.8235305 108.168835,73.9842477 L108.168835,73.9842477 C107.987263,73.8746271 107.807062,73.7725429 107.630286,73.6841613 L107.630286,73.6841613 L48.508472,43.8783189 L48.4975092,43.8783189 C47.5375771,43.3973585 46.4597946,43.1479717 45.3785863,43.1513284 C44.3117667,43.1541378 43.2319287,43.394618 42.2473303,43.8913364 L42.2473303,43.8913364 L1.21214285,64.6560511 C1.95537838,60.4811244 3.02876948,56.4202771 4.40434807,52.5014767 L45.377353,31.7681197 L101.372707,59.9981659 C102.919836,60.775787 104.660184,60.9217195 106.21896,60.5277704 C107.843513,60.1187485 109.30705,59.1287374 110.224501,57.6584511 L110.224501,57.6584511 L110.215594,57.6529701 C110.343036,57.4501719 110.437591,57.2884815 110.497886,57.1672138 C111.215951,55.7380351 111.311876,54.1725159 110.871993,52.7433372 C110.445813,51.3580068 109.518084,50.1165535 108.174453,49.2772707 L108.174453,49.2772707 C107.991511,49.1676501 107.811995,49.0662511 107.635219,48.9771843 L107.635219,48.9771843 L48.5134053,19.171342 L48.5024425,19.171342 C47.5425104,18.6910667 46.4647279,18.4409947 45.3828344,18.4436273 C44.3167,18.447846 43.236862,18.6883262 42.2522635,19.1843594 L42.2522635,19.1843594 L14.2858486,33.3354966 C28.4964054,13.1733083 51.9626412,0 78.5000124,0 Z" fill="#E50113"></path>
                            <path d="M55.6279349,94.1390915 L111.620084,122.577009 L152.590503,101.691196 C150.176914,108.618198 146.832945,115.104642 142.709703,120.998304 L114.744272,135.253736 C113.759741,135.754125 112.680664,135.995691 111.613918,135.999968 C110.5321,136.003283 109.455077,135.750674 108.494527,135.26685 L108.48425,135.26685 L49.366543,105.240805 C49.1897798,105.15108 49.0102761,105.048932 48.8294021,104.935741 L48.8273467,104.938501 C47.483124,104.093018 46.5554596,102.842393 46.1293095,101.446828 C45.6894569,100.007091 45.78606,98.4300055 46.504075,96.9902683 C46.5643663,96.8687948 46.6589141,96.7052196 46.7856629,96.5009232 L46.7774414,96.4954017 C47.6941437,95.014253 49.1582639,94.0169278 50.7820191,93.6048841 C52.3413722,93.2080246 54.0815993,93.3550352 55.6279349,94.1390915 Z M55.6327993,69.2493056 L111.624949,97.6879128 L156.994532,74.5578875 C156.998174,74.8717476 157,75.1860467 157,75.5007746 C157,80.2593152 156.582534,84.9198431 155.782492,89.4472096 L114.749136,110.363951 C113.765291,110.865029 112.684843,111.106595 111.618783,111.110081 C110.537649,111.113497 109.459257,110.861578 108.499391,110.377064 L108.488429,110.377064 L49.3714074,80.3517091 C49.1946442,80.2619844 49.0144553,80.1598362 48.8342665,80.046645 L48.8322111,80.0487155 C47.4879884,79.2032322 46.5603241,77.9526071 46.134174,76.5570421 C45.6943213,75.117995 45.7902393,73.5402196 46.5089394,72.1004823 C46.5692307,71.9790088 46.6630934,71.8161239 46.7905273,71.6118275 L46.7823058,71.606306 C47.6990081,70.1251573 49.1631283,69.1271419 50.7861984,68.7150982 C52.3462366,68.3189289 54.0864637,68.4652493 55.6327993,69.2493056 Z M45.3808749,39.8902944 C46.4620081,39.8868785 47.5397156,40.1381079 48.4995811,40.6226215 L48.5105431,40.6226215 L107.62825,70.6486667 C107.805013,70.7377013 107.985202,70.8405397 108.164706,70.9537309 L108.166761,70.9509702 C109.510984,71.7964535 110.439333,73.0470785 110.865483,74.4426436 C111.304651,75.8823809 111.208733,77.4594661 110.490718,78.8992033 C110.429742,79.0206769 110.335879,79.184252 110.20913,79.3885484 L110.216667,79.3940699 C109.300649,80.8752186 107.836529,81.8725438 106.212774,82.2845875 C104.652736,82.681447 102.912509,82.5344364 101.366173,81.7510703 L45.3740236,53.3124631 L0.00544807273,76.4419135 C0.00181937011,76.1286344 0,75.8149181 0,75.5007746 C0,70.7417339 0.417519054,66.0807368 1.21766223,61.5529378 L42.2498364,40.6357352 C43.2343664,40.1353471 44.3141294,39.8930902 45.3808749,39.8902944 Z M45.3851227,15.0000207 C46.466941,14.9973687 47.5446486,15.2492882 48.504514,15.7331117 L48.5154761,15.7331117 L107.633183,45.7591569 C107.809946,45.8488816 107.98945,45.9510298 108.170324,46.0642211 L108.172379,46.0614603 C109.515917,46.9069436 110.443581,48.1575687 110.869731,49.5531338 C111.309584,50.992871 111.213666,52.5699562 110.495651,54.0096935 C110.43536,54.1318572 110.340812,54.2947421 110.213378,54.4990385 L110.222285,54.50456 C109.304897,55.9857087 107.841462,56.9830339 106.217022,57.3950776 C104.658354,57.7919371 102.918127,57.6449266 101.371106,56.8615604 L45.3796416,28.4229532 L4.40976747,49.3086703 C6.82353877,42.3811877 10.1677729,35.8943509 14.2913519,30.0004022 L42.2547693,15.7462253 C43.2392993,15.2465274 44.3190623,15.0042706 45.3851227,15.0000207 Z" fill="#FFFFFF"></path>
                        </g>
                    </g>
                </g>
                <g id="Group-8" transform="translate(750.000000, 0.000000)">
                    <mask id="mask-11" fill="white">
                        <use xlink:href="#path-10"></use>
                    </mask>
                    <g id="蒙版">
                        <use fill="black" fill-opacity="1" filter="url(#filter-12)" xlink:href="#path-10"></use>
                        <use fill="#FFFFFF" fill-rule="evenodd" xlink:href="#path-10"></use>
                    </g>
                    <g opacity="0.0215885417" mask="url(#mask-11)" id="Combined-Shape">
                        <g transform="translate(66.000000, 100.000000)">
                            <path d="M62.0000067,0 C95.9911693,0 123.603601,27.3654626 123.999992,61.261055 L88.1642041,79.3956274 L43.938033,57.0992852 C42.7166384,56.4845719 41.3420961,56.3698543 40.1098784,56.6804577 C38.8278741,57.0035068 37.6714186,57.7859675 36.9473486,58.9472128 L36.9473486,58.9472128 C36.853187,59.1117135 36.7790483,59.239418 36.7314264,59.3346553 C36.1637512,60.4634333 36.087989,61.7004355 36.4354127,62.8286724 C36.7720133,63.9228187 37.5047418,64.9033296 38.5664946,65.5662026 L38.5664946,65.5662026 C38.7104427,65.6533231 38.8527674,65.733409 38.9923862,65.8037547 L38.9923862,65.8037547 L85.6867809,89.3441336 C86.4536024,89.7240005 87.3053857,89.9215096 88.1593337,89.9188583 C89.0013762,89.9160983 89.854783,89.7267061 90.6318865,89.3338523 L90.6318865,89.3338523 L123.042768,72.9341098 C122.455736,76.2316883 121.607899,79.4391633 120.521352,82.5344395 L88.1603619,98.9090934 L43.9341907,76.6132924 C42.7127962,75.9985791 41.3382538,75.8833204 40.1065773,76.1944649 C38.8240319,76.517514 37.6675763,77.2994336 36.9435064,78.4606788 L36.9435064,78.4606788 C36.849886,78.6251796 36.7752061,78.7534252 36.7275842,78.8486625 C36.1604502,79.9774405 36.0841468,81.2139016 36.4315705,82.3426796 C36.768171,83.4368259 37.5008995,84.4173368 38.5626523,85.0802098 L38.5626523,85.0802098 C38.7071416,85.1667891 38.8489251,85.246875 38.988544,85.3172207 L38.988544,85.3172207 L85.6834799,108.858141 C86.4503013,109.237467 87.3010024,109.435517 88.1554915,109.432917 C88.9980751,109.429564 89.8503996,109.240172 90.6280443,108.84786 L90.6280443,108.84786 L112.716166,97.6724418 C101.492372,113.595981 82.9587478,124 62.0000067,124 C28.0076387,124 0.395319124,96.6334617 -2.10861586e-06,62.7380056 L35.8349975,44.6045349 L80.0611687,66.9008771 C81.2825632,67.5150493 82.6571056,67.630308 83.8893233,67.3191635 C85.1718687,66.9961144 86.3283242,66.2141948 87.051853,65.0529495 L87.051853,65.0529495 C87.1460146,64.8884488 87.2201533,64.7602032 87.2683164,64.6649659 C87.8354504,63.5361879 87.9112126,62.2997268 87.56433,61.1709488 C87.2277295,60.0768025 86.4944599,59.0962916 85.4327071,58.4334186 L85.4327071,58.4334186 C85.2893001,58.3468392 85.1469754,58.2662122 85.0073565,58.1964077 L85.0073565,58.1964077 L38.3124207,34.6554876 C37.5455992,34.2756208 36.694357,34.0786528 35.8404091,34.0813039 C34.9978254,34.0835229 34.1449598,34.2734563 33.3673151,34.6657689 L33.3673151,34.6657689 L0.957246626,51.0665529 C1.5442674,47.7689237 2.39208475,44.5614061 3.47860474,41.4660937 L35.839435,25.0907442 L80.065065,47.3870864 C81.2870007,48.0012585 82.6615431,48.1165173 83.8926784,47.8053728 C85.175765,47.4823237 86.3316794,46.7004041 87.0562905,45.5391588 L87.0562905,45.5391588 C87.1499109,45.3746581 87.2245908,45.2469536 87.2722127,45.1511752 C87.8393467,44.0223972 87.9151089,42.7859361 87.5676852,41.6571581 C87.2310847,40.5630118 86.4983562,39.5825009 85.4371446,38.9196278 L85.4371446,38.9196278 C85.2926553,38.8330485 85.1508718,38.7529626 85.0112529,38.6826169 L85.0112529,38.6826169 L38.316317,15.1416969 C37.5494956,14.7623712 36.6982534,14.5648621 35.8437643,14.5669413 C35.0017218,14.5702733 34.1488561,14.7602067 33.3712115,15.1519781 L33.3712115,15.1519781 L11.2845514,26.3265957 C22.5083235,10.4034917 41.0414655,0 62.0000067,0 Z" fill="#E50113"></path>
                            <path d="M43.935439,74.4799554 L88.1585379,96.5722215 L120.517213,80.3472372 C118.611008,85.728241 115.970063,90.7670277 112.713703,95.3453586 L90.6260489,106.420258 C89.8484582,106.808989 88.996193,106.996653 88.1536678,106.999975 C87.2992381,107.002551 86.4485961,106.806308 85.6899448,106.430446 L85.6818279,106.430446 L38.9901359,83.1044269 C38.8505267,83.0347234 38.7087531,82.9553686 38.5658972,82.8674349 L38.5642738,82.8695796 C37.5025948,82.2127579 36.7699172,81.2411979 36.43334,80.1570399 C36.0859405,79.0385663 36.1622385,77.8133927 36.7293331,76.6949192 C36.7769517,76.6005513 36.8516264,76.4734764 36.9517338,76.3147668 L36.9452403,76.3104774 C37.66926,75.1598329 38.8256352,74.3850514 40.1080915,74.0649513 C41.3396825,73.7566472 42.7141294,73.8708538 43.935439,74.4799554 Z M43.939281,55.1440887 L88.1623799,77.2368909 L123.995684,59.2683769 C123.998559,59.5121137 124,59.7561913 124,60.0006018 C124,63.6967987 123.670375,67.316875 123.038669,70.8335366 L90.6298908,87.0843913 C89.8528413,87.4736587 88.9994938,87.6613221 88.1575098,87.6640302 C87.3036211,87.6666839 86.451897,87.4709778 85.6937867,87.0945788 L85.6851288,87.0945788 L38.9939778,63.7690964 C38.8543687,63.6993928 38.7120539,63.620038 38.5697391,63.5321043 L38.5681158,63.5337129 C37.5064367,62.8768912 36.7737591,61.9053312 36.437182,60.8211732 C36.0897824,59.7032358 36.1655393,58.477526 36.7331751,57.3590524 C36.7807937,57.2646845 36.8549273,57.1381458 36.9555757,56.9794362 L36.9490823,56.9751468 C37.6731019,55.8245024 38.8294771,55.0491846 40.1113923,54.7290846 C41.3435244,54.4213167 42.7179713,54.534987 43.939281,55.1440887 Z M35.8422196,32.3362618 C36.6961083,32.3336081 37.5472913,32.528778 38.3054016,32.9051771 L38.3140595,32.9051771 L85.0057516,56.2311956 C85.1453608,56.300363 85.2876755,56.380254 85.4294492,56.4681877 L85.4310726,56.4660429 C86.4927516,57.1228647 87.2259703,58.0944247 87.5625475,59.1785827 C87.9094059,60.2970562 87.833649,61.5222298 87.2665544,62.6407034 C87.2183946,62.7350713 87.1442611,62.8621462 87.0441537,63.0208558 L87.050106,63.0251452 C86.3266275,64.1757896 85.1702523,64.9505712 83.887796,65.2706713 C82.6556639,65.5789753 81.281217,65.4647688 80.0599073,64.8562033 L35.8368084,42.7634011 L0.00430376383,60.7318047 C0.0014372313,60.4884075 0,60.2446706 0,60.0006018 C0,56.3039746 0.329674863,52.6834938 0.961474969,49.1664588 L33.3692975,32.9153645 C34.1468881,32.5266333 34.9996945,32.3384337 35.8422196,32.3362618 Z M35.8455746,13.0000161 C36.7000044,12.9979558 37.5511874,13.1936619 38.3092977,13.5695248 L38.3179556,13.5695248 L85.0096477,36.8955434 C85.1492568,36.9652469 85.2910305,37.0446017 85.4338864,37.1325354 L85.4355097,37.1303906 C86.4966477,37.7872124 87.2293253,38.7587724 87.5659024,39.8429304 C87.913302,40.961404 87.8375451,42.1865776 87.2704504,43.3050511 C87.2228318,43.3999552 87.1481571,43.5264939 87.0475087,43.6852035 L87.0545432,43.6894929 C86.3299825,44.8401374 85.1741484,45.6149189 83.8911509,45.935019 C82.6601011,46.2433231 81.2856542,46.1291165 80.0638034,45.5205511 L35.8412456,23.4277488 L3.48272251,39.6534434 C5.38906873,34.2718377 8.03028044,29.2325372 11.2870096,24.6538061 L33.3731936,13.5797122 C34.1507842,13.1915172 35.0035906,13.0033176 35.8455746,13.0000161 Z" fill="#FFFFFF"></path>
                        </g>
                    </g>
                </g>
                <g id="Group-8" transform="translate(1000.000000, 0.000000)">
                    <mask id="mask-14" fill="white">
                        <use xlink:href="#path-13"></use>
                    </mask>
                    <g id="蒙版">
                        <use fill="black" fill-opacity="1" filter="url(#filter-15)" xlink:href="#path-13"></use>
                        <use fill="#FFFFFF" fill-rule="evenodd" xlink:href="#path-13"></use>
                    </g>
                    <g opacity="0.0215885417" mask="url(#mask-14)" id="Combined-Shape">
                        <g transform="translate(97.000000, -39.000000)">
                            <path d="M110.500013,0 C171.081778,0 220.29472,48.7735117 221.000011,109.18523 L157.131364,141.503497 L78.3089145,101.765662 C76.1320743,100.670084 73.6822851,100.465627 71.4861552,101.019203 C69.2012928,101.59496 67.1401906,102.989507 65.8497111,105.059145 L65.8497111,105.059145 L65.8612849,105.066861 C65.6818909,105.352328 65.5497566,105.579931 65.464882,105.749668 C64.4531384,107.761442 64.3181106,109.966099 64.9373093,111.976908 C65.5372183,113.926959 66.8431295,115.674483 68.735447,116.855893 L68.735447,116.855893 C68.9919997,117.011165 69.245659,117.153898 69.4944959,117.279272 L69.4944959,117.279272 L152.715957,159.234303 L152.731388,159.234303 C154.08263,159.911323 155.600728,160.263336 157.122684,160.25861 C158.623421,160.253691 160.144412,159.916145 161.529411,159.215979 L161.529411,159.215979 L219.29412,129.986536 C218.24799,135.863314 216.737095,141.579526 214.800807,147.095801 L157.124516,176.281529 L78.3020667,136.544658 C76.1252265,135.449081 73.6754373,135.24366 71.4802718,135.798199 C69.1944449,136.373956 67.1333428,137.767539 65.8428632,139.837178 L65.8428632,139.837178 L65.8544371,139.844893 C65.6760075,140.13036 65.5429087,140.358927 65.4580342,140.528665 C64.447255,142.540438 64.3112628,144.744131 64.9304614,146.755905 C65.5303705,148.705956 66.8362817,150.453479 68.7285992,151.63489 L68.7285992,151.63489 C68.9861164,151.789197 69.2388112,151.93193 69.487648,152.057305 L69.487648,152.057305 L152.710073,194.013299 L152.72454,194.013299 C154.076747,194.689356 155.592916,195.042332 157.115836,195.037699 C158.617537,195.031724 160.136599,194.694178 161.522563,193.994975 L161.522563,193.994975 L200.890214,174.076194 C180.88661,202.456785 147.854469,221 110.500013,221 C49.9169555,221 0.704748262,172.225951 1.98933983e-06,111.815659 L63.8672144,79.4967921 L142.689664,119.234628 C144.866504,120.329241 147.316293,120.534662 149.512423,119.980122 C151.79825,119.404365 153.859352,118.010783 155.148867,115.941144 L155.148867,115.941144 L155.138258,115.933429 C155.316687,115.647961 155.448822,115.419394 155.534661,115.249657 C156.54544,113.237883 156.680468,111.034191 156.062234,109.022417 C155.462325,107.072366 154.155449,105.324842 152.263131,104.143431 L152.263131,104.143431 C152.007543,103.989125 151.753884,103.845427 151.505047,103.721017 L151.505047,103.721017 L68.2826218,61.7650222 L68.2671901,61.7650222 C66.9159481,61.0880015 65.3988148,60.7369538 63.8768592,60.7416788 C62.3751577,60.7456335 60.855131,61.0841439 59.4691676,61.7833461 L59.4691676,61.7833461 L1.70621183,91.0129356 C2.75250089,85.1355995 4.26361464,79.4188744 6.20017348,73.9021391 L63.8751231,44.7181812 L142.696608,84.4560169 C144.874413,85.5506301 147.324202,85.756051 149.518403,85.2015112 C151.805194,84.6257543 153.865332,83.2321718 155.156776,81.1625331 L155.156776,81.1625331 L155.144238,81.1548177 C155.323632,80.8693503 155.456731,80.6417479 155.541605,80.4710461 C156.552384,78.4592724 156.687412,76.2555797 156.068213,74.2438059 C155.468304,72.2937549 154.162393,70.5462314 152.27104,69.3648206 L152.27104,69.3648206 C152.013523,69.2105139 151.760828,69.0677802 151.511991,68.942406 L151.511991,68.942406 L68.2895661,26.9864113 L68.2741343,26.9864113 C66.9228924,26.310355 65.4057591,25.9583429 63.882839,25.9620486 C62.382102,25.967987 60.8620753,26.3064974 59.4761119,27.0047352 L59.4761119,27.0047352 L20.1102476,46.9232514 C40.1137307,18.5427803 73.1454028,0 110.500013,0 Z" fill="#E50113"></path>
                            <path d="M78.3042906,132.533111 L157.121265,172.252185 L214.792839,143.081555 C211.39543,152.756137 206.688465,161.81543 200.884626,170.046841 L161.519006,189.957698 C160.133139,190.656587 158.614183,190.993982 157.112585,190.999955 C155.589771,191.004586 154.073708,190.651767 152.721595,189.976014 L152.707129,189.976014 L69.4904841,148.03881 C69.2416646,147.913492 68.9889873,147.770822 68.7343812,147.612729 L68.731488,147.616585 C66.839302,146.435703 65.5334814,144.688962 64.9336141,142.739785 C64.3144584,140.728912 64.4504412,138.526206 65.4611501,136.515333 C65.5460188,136.345672 65.6791084,136.117208 65.8575255,135.831868 L65.8459525,135.824156 C67.1363424,133.755444 69.1973014,132.362486 71.4829695,131.786987 C73.6779825,131.232696 76.1276015,131.438024 78.3042906,132.533111 Z M78.3111379,97.7696913 L157.128113,137.489729 L220.9923,105.183939 C220.997429,105.622378 221,106.06143 221,106.501082 C221,113.14655 220.412491,119.655155 219.286569,125.977823 L161.525854,155.194278 C160.140951,155.894131 158.620066,156.231526 157.119433,156.236395 C155.597583,156.241166 154.079591,155.889311 152.728442,155.212594 L152.713012,155.212594 L69.4973315,113.276354 C69.2485119,113.151036 68.9948703,113.008366 68.7412286,112.850273 L68.7383354,112.853165 C66.8461493,111.672283 65.5403288,109.925542 64.9404614,107.976365 C64.3213058,105.966456 64.4563241,103.762786 65.4679975,101.751913 C65.5528662,101.582252 65.6849913,101.354752 65.8643729,101.069412 L65.8527999,101.0617 C67.1431897,98.9929883 69.2041487,97.599066 71.4888525,97.0235669 C73.6848299,96.4702395 76.1344489,96.6746043 78.3111379,97.7696913 Z M63.880085,56.7641302 C65.4019349,56.7593593 66.9189628,57.1102498 68.2701109,57.7869673 L68.2855416,57.7869673 L151.502186,99.7241709 C151.751006,99.848525 152.004648,99.9921587 152.257325,100.150252 L152.260218,100.146396 C154.152404,101.327278 155.459189,103.074019 156.059056,105.023196 C156.677248,107.034069 156.542229,109.236775 155.53152,111.247648 C155.445687,111.417309 155.313562,111.645773 155.135145,111.931113 L155.145754,111.938825 C153.856328,114.007537 151.795369,115.400495 149.509701,115.975994 C147.313724,116.530285 144.864104,116.324957 142.687415,115.230834 L63.8704408,75.5107956 L0.00766125762,107.814907 C0.00255845524,107.37757 0,106.939624 0,106.501082 C0,99.8547405 0.587614771,93.3453121 1.71373762,87.0218836 L59.4726996,57.805283 C60.8585667,57.1063939 62.3784878,56.7680351 63.880085,56.7641302 Z M63.8860644,22.0000289 C65.4088787,21.9963248 66.9259066,22.3481794 68.2770547,23.0239329 L68.2924854,23.0239329 L151.50913,64.9611365 C151.75795,65.0864545 152.010627,65.2291243 152.265233,65.3872179 L152.268126,65.3833619 C154.159348,66.5642435 155.465168,68.3109844 156.065036,70.260162 C156.684191,72.2710348 156.549173,74.4737405 155.538464,76.4846132 C155.453595,76.6552386 155.320506,76.882739 155.141124,77.1680786 L155.153662,77.1757905 C153.862307,79.2445023 151.802313,80.6374606 149.51568,81.2129597 C147.321632,81.767251 144.872013,81.5619222 142.694359,80.4677993 L63.8783491,40.7477611 L6.20706049,69.9196304 C9.60466485,60.2441382 14.3120027,51.1840717 20.1163621,42.9520582 L59.4796434,23.0422486 C60.8655105,22.3443234 62.3854316,22.0059647 63.8860644,22.0000289 Z" fill="#FFFFFF"></path>
                        </g>
                    </g>
                </g>
                <circle id="椭圆形" fill="#E02020" opacity="0.19547526" cx="58" cy="63" r="20"></circle>
                <circle id="椭圆形" fill="#E02020" opacity="0.19547526" cx="309" cy="63" r="20"></circle>
                <circle id="椭圆形" fill="#E02020" opacity="0.19547526" cx="559" cy="63" r="20"></circle>
                <circle id="椭圆形" fill="#E02020" opacity="0.19547526" cx="809" cy="63" r="20"></circle>
                <circle id="椭圆形" fill="#E02020" opacity="0.19547526" cx="1059" cy="63" r="20"></circle>
                <text id="注册" font-family="PingFangSC-Regular, PingFang SC" font-size="20" font-weight="normal" fill="#333333">
                    <tspan x="30" y="143">注册</tspan>
                </text>
                <text id="询价" font-family="PingFangSC-Regular, PingFang SC" font-size="20" font-weight="normal" fill="#333333">
                    <tspan x="280" y="143">询价</tspan>
                </text>
                <text id="申请融资" font-family="PingFangSC-Regular, PingFang SC" font-size="20" font-weight="normal" fill="#333333">
                    <tspan x="530" y="143">申请融资</tspan>
                </text>
                <text id="背书" font-family="PingFangSC-Regular, PingFang SC" font-size="20" font-weight="normal" fill="#333333">
                    <tspan x="780" y="143">背书</tspan>
                </text>
                <text id="完成交易" font-family="PingFangSC-Regular, PingFang SC" font-size="20" font-weight="normal" fill="#333333">
                    <tspan x="1030" y="143">完成交易</tspan>
                </text>
                <text id="01" font-family="DINAlternate-Bold, DIN Alternate" font-size="40" font-weight="bold" fill="#333333">
                    <tspan x="30" y="78">01</tspan>
                </text>
                <rect id="矩形" fill="#E02020" x="30" y="97" width="36" height="4"></rect>
                <rect id="矩形" fill="#E02020" x="280" y="97" width="36" height="4"></rect>
                <rect id="矩形" fill="#E02020" x="530" y="97" width="36" height="4"></rect>
                <rect id="矩形" fill="#E02020" x="780" y="97" width="36" height="4"></rect>
                <rect id="矩形" fill="#E02020" x="1030" y="97" width="36" height="4"></rect>
                <text id="02" font-family="DINAlternate-Bold, DIN Alternate" font-size="40" font-weight="bold" fill="#333333">
                    <tspan x="280" y="78">02</tspan>
                </text>
                <text id="03" font-family="DINAlternate-Bold, DIN Alternate" font-size="40" font-weight="bold" fill="#333333">
                    <tspan x="530" y="78">03</tspan>
                </text>
                <text id="04" font-family="DINAlternate-Bold, DIN Alternate" font-size="40" font-weight="bold" fill="#333333">
                    <tspan x="780" y="78">04</tspan>
                </text>
                <text id="05" font-family="DINAlternate-Bold, DIN Alternate" font-size="40" font-weight="bold" fill="#333333">
                    <tspan x="1030" y="78">05</tspan>
                </text>
                <path id="直线-2" d="M221.5,86 L230.5,90.5 L221.5,95 L221.5,91 L199.5,91 L199.5,90 L221.5,90 L221.5,86 Z" fill-opacity="0.25" fill="#000000" fill-rule="nonzero"></path>
                <path id="直线-2" d="M471.5,86 L480.5,90.5 L471.5,95 L471.5,91 L449.5,91 L449.5,90 L471.5,90 L471.5,86 Z" fill-opacity="0.25" fill="#000000" fill-rule="nonzero"></path>
                <path id="直线-2" d="M721.5,86 L730.5,90.5 L721.5,95 L721.5,91 L699.5,91 L699.5,90 L721.5,90 L721.5,86 Z" fill-opacity="0.25" fill="#000000" fill-rule="nonzero"></path>
                <path id="直线-2" d="M971.5,86 L980.5,90.5 L971.5,95 L971.5,91 L949.5,91 L949.5,90 L971.5,90 L971.5,86 Z" fill-opacity="0.25" fill="#000000" fill-rule="nonzero"></path>
            </g>
        </g>
    </g>
</svg>